<mxfile host="app.diagrams.net" agent="Mozilla/5.0 (Windows NT 10.0; Win64; x64) AppleWebKit/537.36 (KHTML, like Gecko) Chrome/131.0.0.0 Safari/537.36" version="25.0.1">
  <diagram name="第 1 页" id="E1dYkGrKqzfZft4_fmLs">
    <mxGraphModel dx="883" dy="608" grid="0" gridSize="10" guides="1" tooltips="1" connect="1" arrows="1" fold="1" page="0" pageScale="1" pageWidth="827" pageHeight="1169" math="0" shadow="0">
      <root>
        <mxCell id="0" />
        <mxCell id="1" parent="0" />
        <mxCell id="62gJVsD1v98bPEKAvVat-10" style="edgeStyle=none;curved=1;rounded=0;orthogonalLoop=1;jettySize=auto;html=1;entryX=0.5;entryY=0;entryDx=0;entryDy=0;fontSize=12;startSize=8;endSize=8;endArrow=openThin;endFill=0;strokeColor=#808080;" edge="1" parent="1" source="62gJVsD1v98bPEKAvVat-1" target="62gJVsD1v98bPEKAvVat-4">
          <mxGeometry relative="1" as="geometry" />
        </mxCell>
        <mxCell id="62gJVsD1v98bPEKAvVat-12" style="edgeStyle=none;curved=1;rounded=0;orthogonalLoop=1;jettySize=auto;html=1;entryX=0;entryY=0;entryDx=0;entryDy=0;fontSize=12;startSize=8;endSize=8;endArrow=openThin;endFill=0;strokeColor=#808080;" edge="1" parent="1" source="62gJVsD1v98bPEKAvVat-1" target="62gJVsD1v98bPEKAvVat-8">
          <mxGeometry relative="1" as="geometry" />
        </mxCell>
        <mxCell id="62gJVsD1v98bPEKAvVat-17" style="edgeStyle=none;curved=1;rounded=0;orthogonalLoop=1;jettySize=auto;html=1;entryX=0;entryY=0;entryDx=0;entryDy=0;fontSize=12;startSize=8;endSize=8;endArrow=openThin;endFill=0;strokeColor=#808080;" edge="1" parent="1" source="62gJVsD1v98bPEKAvVat-1" target="62gJVsD1v98bPEKAvVat-2">
          <mxGeometry relative="1" as="geometry" />
        </mxCell>
        <mxCell id="62gJVsD1v98bPEKAvVat-1" value="" style="ellipse;whiteSpace=wrap;html=1;aspect=fixed;fillColor=#b0e3e6;strokeColor=#0e8088;" vertex="1" parent="1">
          <mxGeometry x="-315" y="-216" width="15" height="15" as="geometry" />
        </mxCell>
        <mxCell id="62gJVsD1v98bPEKAvVat-20" style="edgeStyle=none;curved=1;rounded=0;orthogonalLoop=1;jettySize=auto;html=1;entryX=0.5;entryY=1;entryDx=0;entryDy=0;fontSize=12;startSize=8;endSize=8;endArrow=openThin;endFill=0;strokeColor=#808080;" edge="1" parent="1" source="62gJVsD1v98bPEKAvVat-2" target="62gJVsD1v98bPEKAvVat-6">
          <mxGeometry relative="1" as="geometry" />
        </mxCell>
        <mxCell id="62gJVsD1v98bPEKAvVat-2" value="" style="ellipse;whiteSpace=wrap;html=1;aspect=fixed;fillColor=#fff2cc;strokeColor=#d6b656;direction=south;" vertex="1" parent="1">
          <mxGeometry x="-233" y="-72" width="15" height="15" as="geometry" />
        </mxCell>
        <mxCell id="62gJVsD1v98bPEKAvVat-11" style="edgeStyle=none;curved=1;rounded=0;orthogonalLoop=1;jettySize=auto;html=1;entryX=0;entryY=0.5;entryDx=0;entryDy=0;fontSize=12;startSize=8;endSize=8;endArrow=openThin;endFill=0;strokeColor=#999999;" edge="1" parent="1" source="62gJVsD1v98bPEKAvVat-3" target="62gJVsD1v98bPEKAvVat-1">
          <mxGeometry relative="1" as="geometry" />
        </mxCell>
        <mxCell id="62gJVsD1v98bPEKAvVat-3" value="" style="ellipse;whiteSpace=wrap;html=1;aspect=fixed;fillColor=#ffe6cc;strokeColor=#d79b00;" vertex="1" parent="1">
          <mxGeometry x="-352" y="-148" width="15" height="15" as="geometry" />
        </mxCell>
        <mxCell id="62gJVsD1v98bPEKAvVat-16" style="edgeStyle=none;curved=1;rounded=0;orthogonalLoop=1;jettySize=auto;html=1;entryX=0.5;entryY=0;entryDx=0;entryDy=0;fontSize=12;startSize=8;endSize=8;endArrow=openThin;endFill=0;strokeColor=#808080;" edge="1" parent="1" source="62gJVsD1v98bPEKAvVat-4" target="62gJVsD1v98bPEKAvVat-7">
          <mxGeometry relative="1" as="geometry" />
        </mxCell>
        <mxCell id="62gJVsD1v98bPEKAvVat-4" value="" style="ellipse;whiteSpace=wrap;html=1;aspect=fixed;fillColor=#f8cecc;strokeColor=#b85450;" vertex="1" parent="1">
          <mxGeometry x="-276" y="-111" width="15" height="15" as="geometry" />
        </mxCell>
        <mxCell id="62gJVsD1v98bPEKAvVat-13" style="edgeStyle=none;curved=1;rounded=0;orthogonalLoop=1;jettySize=auto;html=1;entryX=0;entryY=1;entryDx=0;entryDy=0;fontSize=12;startSize=8;endSize=8;endArrow=openThin;endFill=0;strokeColor=#808080;" edge="1" parent="1" source="62gJVsD1v98bPEKAvVat-5" target="62gJVsD1v98bPEKAvVat-4">
          <mxGeometry relative="1" as="geometry" />
        </mxCell>
        <mxCell id="62gJVsD1v98bPEKAvVat-14" style="edgeStyle=none;curved=1;rounded=0;orthogonalLoop=1;jettySize=auto;html=1;entryX=0;entryY=1;entryDx=0;entryDy=0;fontSize=12;startSize=8;endSize=8;endArrow=openThin;endFill=0;strokeColor=#808080;" edge="1" parent="1" source="62gJVsD1v98bPEKAvVat-5" target="62gJVsD1v98bPEKAvVat-3">
          <mxGeometry relative="1" as="geometry" />
        </mxCell>
        <mxCell id="62gJVsD1v98bPEKAvVat-5" value="" style="ellipse;whiteSpace=wrap;html=1;aspect=fixed;fillColor=#bac8d3;strokeColor=#23445d;" vertex="1" parent="1">
          <mxGeometry x="-363" y="-76" width="15" height="15" as="geometry" />
        </mxCell>
        <mxCell id="62gJVsD1v98bPEKAvVat-6" value="" style="ellipse;whiteSpace=wrap;html=1;aspect=fixed;fillColor=#d5e8d4;strokeColor=#82b366;" vertex="1" parent="1">
          <mxGeometry x="-208" y="-117" width="15" height="15" as="geometry" />
        </mxCell>
        <mxCell id="62gJVsD1v98bPEKAvVat-15" style="edgeStyle=none;curved=1;rounded=0;orthogonalLoop=1;jettySize=auto;html=1;entryX=0.5;entryY=1;entryDx=0;entryDy=0;fontSize=12;startSize=8;endSize=8;endArrow=openThin;endFill=0;strokeColor=#808080;" edge="1" parent="1" source="62gJVsD1v98bPEKAvVat-7" target="62gJVsD1v98bPEKAvVat-5">
          <mxGeometry relative="1" as="geometry" />
        </mxCell>
        <mxCell id="62gJVsD1v98bPEKAvVat-19" style="edgeStyle=none;curved=1;rounded=0;orthogonalLoop=1;jettySize=auto;html=1;entryX=1;entryY=1;entryDx=0;entryDy=0;fontSize=12;startSize=8;endSize=8;endArrow=openThin;endFill=0;strokeColor=#808080;" edge="1" parent="1" source="62gJVsD1v98bPEKAvVat-7" target="62gJVsD1v98bPEKAvVat-2">
          <mxGeometry relative="1" as="geometry" />
        </mxCell>
        <mxCell id="62gJVsD1v98bPEKAvVat-7" value="" style="ellipse;whiteSpace=wrap;html=1;aspect=fixed;fillColor=#e1d5e7;strokeColor=#9673a6;" vertex="1" parent="1">
          <mxGeometry x="-288" y="-65" width="15" height="15" as="geometry" />
        </mxCell>
        <mxCell id="62gJVsD1v98bPEKAvVat-18" style="edgeStyle=none;curved=1;rounded=0;orthogonalLoop=1;jettySize=auto;html=1;entryX=0.5;entryY=0;entryDx=0;entryDy=0;fontSize=12;startSize=8;endSize=8;endArrow=openThin;endFill=0;strokeColor=#808080;" edge="1" parent="1" source="62gJVsD1v98bPEKAvVat-8" target="62gJVsD1v98bPEKAvVat-6">
          <mxGeometry relative="1" as="geometry" />
        </mxCell>
        <mxCell id="62gJVsD1v98bPEKAvVat-8" value="" style="ellipse;whiteSpace=wrap;html=1;aspect=fixed;fillColor=#dae8fc;strokeColor=#6c8ebf;" vertex="1" parent="1">
          <mxGeometry x="-233" y="-204" width="15" height="15" as="geometry" />
        </mxCell>
        <mxCell id="62gJVsD1v98bPEKAvVat-23" value="" style="shape=table;startSize=0;container=1;collapsible=0;childLayout=tableLayout;fontSize=16;" vertex="1" parent="1">
          <mxGeometry x="-76" y="-94" width="40" height="10" as="geometry" />
        </mxCell>
        <mxCell id="62gJVsD1v98bPEKAvVat-24" value="" style="shape=tableRow;horizontal=0;startSize=0;swimlaneHead=0;swimlaneBody=0;strokeColor=inherit;top=0;left=0;bottom=0;right=0;collapsible=0;dropTarget=0;fillColor=none;points=[[0,0.5],[1,0.5]];portConstraint=eastwest;fontSize=16;" vertex="1" parent="62gJVsD1v98bPEKAvVat-23">
          <mxGeometry width="40" height="10" as="geometry" />
        </mxCell>
        <mxCell id="62gJVsD1v98bPEKAvVat-25" value="" style="shape=partialRectangle;html=1;whiteSpace=wrap;connectable=0;strokeColor=#d6b656;overflow=hidden;fillColor=#D5E8D4;top=0;left=0;bottom=0;right=0;pointerEvents=1;fontSize=16;" vertex="1" parent="62gJVsD1v98bPEKAvVat-24">
          <mxGeometry width="10" height="10" as="geometry">
            <mxRectangle width="10" height="10" as="alternateBounds" />
          </mxGeometry>
        </mxCell>
        <mxCell id="62gJVsD1v98bPEKAvVat-26" value="" style="shape=partialRectangle;html=1;whiteSpace=wrap;connectable=0;strokeColor=#d6b656;overflow=hidden;fillColor=#D5E8D4;top=0;left=0;bottom=0;right=0;pointerEvents=1;fontSize=16;" vertex="1" parent="62gJVsD1v98bPEKAvVat-24">
          <mxGeometry x="10" width="10" height="10" as="geometry">
            <mxRectangle width="10" height="10" as="alternateBounds" />
          </mxGeometry>
        </mxCell>
        <mxCell id="62gJVsD1v98bPEKAvVat-27" value="" style="shape=partialRectangle;html=1;whiteSpace=wrap;connectable=0;strokeColor=#d6b656;overflow=hidden;fillColor=#9AC7BF;top=0;left=0;bottom=0;right=0;pointerEvents=1;fontSize=16;" vertex="1" parent="62gJVsD1v98bPEKAvVat-24">
          <mxGeometry x="20" width="10" height="10" as="geometry">
            <mxRectangle width="10" height="10" as="alternateBounds" />
          </mxGeometry>
        </mxCell>
        <mxCell id="62gJVsD1v98bPEKAvVat-28" style="shape=partialRectangle;html=1;whiteSpace=wrap;connectable=0;strokeColor=#333300;overflow=hidden;fillColor=#67AB9F;top=0;left=0;bottom=0;right=0;pointerEvents=1;fontSize=16;" vertex="1" parent="62gJVsD1v98bPEKAvVat-24">
          <mxGeometry x="30" width="10" height="10" as="geometry">
            <mxRectangle width="10" height="10" as="alternateBounds" />
          </mxGeometry>
        </mxCell>
        <mxCell id="62gJVsD1v98bPEKAvVat-61" style="edgeStyle=orthogonalEdgeStyle;rounded=0;orthogonalLoop=1;jettySize=auto;html=1;entryX=0.5;entryY=0;entryDx=0;entryDy=0;fontSize=12;startSize=8;endSize=8;endArrow=none;endFill=0;" edge="1" parent="1" source="62gJVsD1v98bPEKAvVat-40" target="62gJVsD1v98bPEKAvVat-23">
          <mxGeometry relative="1" as="geometry">
            <Array as="points">
              <mxPoint x="23" y="-110" />
              <mxPoint x="-56" y="-110" />
            </Array>
          </mxGeometry>
        </mxCell>
        <mxCell id="62gJVsD1v98bPEKAvVat-40" value="" style="shape=table;startSize=0;container=1;collapsible=0;childLayout=tableLayout;fontSize=16;" vertex="1" parent="1">
          <mxGeometry x="3" y="-130" width="40" height="10" as="geometry" />
        </mxCell>
        <mxCell id="62gJVsD1v98bPEKAvVat-41" value="" style="shape=tableRow;horizontal=0;startSize=0;swimlaneHead=0;swimlaneBody=0;strokeColor=inherit;top=0;left=0;bottom=0;right=0;collapsible=0;dropTarget=0;fillColor=none;points=[[0,0.5],[1,0.5]];portConstraint=eastwest;fontSize=16;" vertex="1" parent="62gJVsD1v98bPEKAvVat-40">
          <mxGeometry width="40" height="10" as="geometry" />
        </mxCell>
        <mxCell id="62gJVsD1v98bPEKAvVat-42" value="" style="shape=partialRectangle;html=1;whiteSpace=wrap;connectable=0;strokeColor=#d6b656;overflow=hidden;fillColor=#FFCCCC;top=0;left=0;bottom=0;right=0;pointerEvents=1;fontSize=16;" vertex="1" parent="62gJVsD1v98bPEKAvVat-41">
          <mxGeometry width="10" height="10" as="geometry">
            <mxRectangle width="10" height="10" as="alternateBounds" />
          </mxGeometry>
        </mxCell>
        <mxCell id="62gJVsD1v98bPEKAvVat-43" value="" style="shape=partialRectangle;html=1;whiteSpace=wrap;connectable=0;strokeColor=#d6b656;overflow=hidden;fillColor=#FF9999;top=0;left=0;bottom=0;right=0;pointerEvents=1;fontSize=16;" vertex="1" parent="62gJVsD1v98bPEKAvVat-41">
          <mxGeometry x="10" width="10" height="10" as="geometry">
            <mxRectangle width="10" height="10" as="alternateBounds" />
          </mxGeometry>
        </mxCell>
        <mxCell id="62gJVsD1v98bPEKAvVat-44" value="" style="shape=partialRectangle;html=1;whiteSpace=wrap;connectable=0;strokeColor=#d6b656;overflow=hidden;fillColor=#FF6666;top=0;left=0;bottom=0;right=0;pointerEvents=1;fontSize=16;" vertex="1" parent="62gJVsD1v98bPEKAvVat-41">
          <mxGeometry x="20" width="10" height="10" as="geometry">
            <mxRectangle width="10" height="10" as="alternateBounds" />
          </mxGeometry>
        </mxCell>
        <mxCell id="62gJVsD1v98bPEKAvVat-45" style="shape=partialRectangle;html=1;whiteSpace=wrap;connectable=0;strokeColor=#333300;overflow=hidden;fillColor=#CC0000;top=0;left=0;bottom=0;right=0;pointerEvents=1;fontSize=16;" vertex="1" parent="62gJVsD1v98bPEKAvVat-41">
          <mxGeometry x="30" width="10" height="10" as="geometry">
            <mxRectangle width="10" height="10" as="alternateBounds" />
          </mxGeometry>
        </mxCell>
        <mxCell id="62gJVsD1v98bPEKAvVat-55" value="" style="shape=table;startSize=0;container=1;collapsible=0;childLayout=tableLayout;fontSize=16;" vertex="1" parent="1">
          <mxGeometry x="85" y="-94" width="40" height="10" as="geometry" />
        </mxCell>
        <mxCell id="62gJVsD1v98bPEKAvVat-56" value="" style="shape=tableRow;horizontal=0;startSize=0;swimlaneHead=0;swimlaneBody=0;strokeColor=inherit;top=0;left=0;bottom=0;right=0;collapsible=0;dropTarget=0;fillColor=none;points=[[0,0.5],[1,0.5]];portConstraint=eastwest;fontSize=16;" vertex="1" parent="62gJVsD1v98bPEKAvVat-55">
          <mxGeometry width="40" height="10" as="geometry" />
        </mxCell>
        <mxCell id="62gJVsD1v98bPEKAvVat-57" value="" style="shape=partialRectangle;html=1;whiteSpace=wrap;connectable=0;strokeColor=#d6b656;overflow=hidden;fillColor=#CCFFFF;top=0;left=0;bottom=0;right=0;pointerEvents=1;fontSize=16;" vertex="1" parent="62gJVsD1v98bPEKAvVat-56">
          <mxGeometry width="10" height="10" as="geometry">
            <mxRectangle width="10" height="10" as="alternateBounds" />
          </mxGeometry>
        </mxCell>
        <mxCell id="62gJVsD1v98bPEKAvVat-58" value="" style="shape=partialRectangle;html=1;whiteSpace=wrap;connectable=0;strokeColor=#d6b656;overflow=hidden;fillColor=#66FFFF;top=0;left=0;bottom=0;right=0;pointerEvents=1;fontSize=16;" vertex="1" parent="62gJVsD1v98bPEKAvVat-56">
          <mxGeometry x="10" width="10" height="10" as="geometry">
            <mxRectangle width="10" height="10" as="alternateBounds" />
          </mxGeometry>
        </mxCell>
        <mxCell id="62gJVsD1v98bPEKAvVat-59" value="" style="shape=partialRectangle;html=1;whiteSpace=wrap;connectable=0;strokeColor=#d6b656;overflow=hidden;fillColor=#3399FF;top=0;left=0;bottom=0;right=0;pointerEvents=1;fontSize=16;" vertex="1" parent="62gJVsD1v98bPEKAvVat-56">
          <mxGeometry x="20" width="10" height="10" as="geometry">
            <mxRectangle width="10" height="10" as="alternateBounds" />
          </mxGeometry>
        </mxCell>
        <mxCell id="62gJVsD1v98bPEKAvVat-60" style="shape=partialRectangle;html=1;whiteSpace=wrap;connectable=0;strokeColor=#333300;overflow=hidden;fillColor=#004C99;top=0;left=0;bottom=0;right=0;pointerEvents=1;fontSize=16;" vertex="1" parent="62gJVsD1v98bPEKAvVat-56">
          <mxGeometry x="30" width="10" height="10" as="geometry">
            <mxRectangle width="10" height="10" as="alternateBounds" />
          </mxGeometry>
        </mxCell>
        <mxCell id="62gJVsD1v98bPEKAvVat-62" style="edgeStyle=orthogonalEdgeStyle;rounded=0;orthogonalLoop=1;jettySize=auto;html=1;entryX=0.635;entryY=-0.054;entryDx=0;entryDy=0;entryPerimeter=0;fontSize=12;startSize=8;endSize=8;endArrow=none;endFill=0;" edge="1" parent="1" source="62gJVsD1v98bPEKAvVat-40" target="62gJVsD1v98bPEKAvVat-55">
          <mxGeometry relative="1" as="geometry">
            <Array as="points">
              <mxPoint x="23" y="-110" />
              <mxPoint x="110" y="-110" />
            </Array>
          </mxGeometry>
        </mxCell>
        <mxCell id="62gJVsD1v98bPEKAvVat-63" value="查询感知的时序表示" style="text;html=1;align=center;verticalAlign=middle;whiteSpace=wrap;rounded=0;fontSize=16;" vertex="1" parent="1">
          <mxGeometry x="-145" y="-141" width="148" height="30" as="geometry" />
        </mxCell>
        <mxCell id="62gJVsD1v98bPEKAvVat-64" value="查询感知的静态表示" style="text;html=1;align=center;verticalAlign=middle;whiteSpace=wrap;rounded=0;fontSize=16;" vertex="1" parent="1">
          <mxGeometry x="-132" y="-79.5" width="167" height="30" as="geometry" />
        </mxCell>
        <mxCell id="62gJVsD1v98bPEKAvVat-65" value="时间特征" style="text;html=1;align=center;verticalAlign=middle;whiteSpace=wrap;rounded=0;fontSize=16;" vertex="1" parent="1">
          <mxGeometry x="35" y="-79.5" width="167" height="30" as="geometry" />
        </mxCell>
      </root>
    </mxGraphModel>
  </diagram>
</mxfile>
